<svg width="36" height="36" viewBox="0 0 36 36" fill="none" xmlns="http://www.w3.org/2000/svg">
<path d="M6 29.25V6.75C6 5.75544 6.39509 4.80161 7.09835 4.09835C7.80161 3.39509 8.75544 3 9.75 3H28.5C28.8978 3 29.2794 3.15804 29.5607 3.43934C29.842 3.72064 30 4.10218 30 4.5V31.5C30 31.8978 29.842 32.2794 29.5607 32.5607C29.2794 32.842 28.8978 33 28.5 33H9.75C8.75544 33 7.80161 32.6049 7.09835 31.9016C6.39509 31.1984 6 30.2446 6 29.25ZM6 29.25C6 28.2554 6.39509 27.3016 7.09835 26.5983C7.80161 25.8951 8.75544 25.5 9.75 25.5H30" stroke="#212227" stroke-width="2.5" stroke-linecap="round" stroke-linejoin="round"/>
<path d="M13.5 14.25L16.5 17.25L22.5 11.25" stroke="#212227" stroke-width="2.5" stroke-linecap="round" stroke-linejoin="round"/>
</svg>
