<svg width="36" height="36" viewBox="0 0 36 36" fill="none" xmlns="http://www.w3.org/2000/svg">
<path d="M27 31.5C27 28.3174 25.7357 25.2652 23.4853 23.0147C21.2348 20.7643 18.1826 19.5 15 19.5C11.8174 19.5 8.76516 20.7643 6.51472 23.0147C4.26428 25.2652 3 28.3174 3 31.5" stroke="#212227" stroke-width="2.5" stroke-linecap="round" stroke-linejoin="round"/>
<path d="M15 19.5C19.1421 19.5 22.5 16.1421 22.5 12C22.5 7.85786 19.1421 4.5 15 4.5C10.8579 4.5 7.5 7.85786 7.5 12C7.5 16.1421 10.8579 19.5 15 19.5Z" stroke="#212227" stroke-width="2.5" stroke-linecap="round" stroke-linejoin="round"/>
<path d="M33.0002 30C33.0002 24.945 30.0002 20.2501 27.0002 18.0001C27.9863 17.2602 28.7749 16.2887 29.296 15.1715C29.8172 14.0542 30.055 12.8258 29.9882 11.5947C29.9215 10.3637 29.5523 9.16818 28.9134 8.11385C28.2745 7.05952 27.3855 6.17894 26.3252 5.55005" stroke="#212227" stroke-width="2.5" stroke-linecap="round" stroke-linejoin="round"/>
</svg>
