<svg width="36" height="36" viewBox="0 0 36 36" fill="none" xmlns="http://www.w3.org/2000/svg">
<path d="M18 4.5H7.5C6.70435 4.5 5.94129 4.81607 5.37868 5.37868C4.81607 5.94129 4.5 6.70435 4.5 7.5V28.5C4.5 29.2956 4.81607 30.0587 5.37868 30.6213C5.94129 31.1839 6.70435 31.5 7.5 31.5H28.5C29.2956 31.5 30.0587 31.1839 30.6213 30.6213C31.1839 30.0587 31.5 29.2956 31.5 28.5V18" stroke="#212227" stroke-width="2.5" stroke-linecap="round" stroke-linejoin="round"/>
<path d="M27.5626 3.93747C28.1594 3.34074 28.9687 3.00549 29.8126 3.00549C30.6566 3.00549 31.4659 3.34074 32.0626 3.93747C32.6594 4.53421 32.9946 5.34356 32.9946 6.18747C32.9946 7.03139 32.6594 7.84074 32.0626 8.43747L18.5431 21.9585C18.187 22.3143 17.7469 22.5748 17.2636 22.716L12.9541 23.976C12.8251 24.0136 12.6882 24.0159 12.558 23.9825C12.4278 23.9491 12.3089 23.8814 12.2138 23.7863C12.1187 23.6912 12.051 23.5724 12.0176 23.4421C11.9842 23.3119 11.9865 23.175 12.0241 23.046L13.2841 18.7365C13.4259 18.2535 13.6869 17.8141 14.0431 17.4585L27.5626 3.93747Z" stroke="#212227" stroke-width="2.5" stroke-linecap="round" stroke-linejoin="round"/>
</svg>
